# Blender v3.0.1 OBJ File: 'road3.blend'
# www.blender.org
mtllib road3.mtl
o rua_Cubo
v 16.744492 0.849350 1.604423
v 16.744492 0.849350 -2.734882
v 16.744492 1.150650 -2.734882
v 16.744492 1.150650 1.604423
v -14.945755 0.849350 -2.734882
v -14.945755 1.150650 -2.734882
v -14.945755 0.849350 1.604423
v -14.945755 1.150650 1.604423
vt 2.338983 0.030904
vt 2.338983 0.969096
vt -1.338983 0.969096
vt -1.338983 0.030904
vt 2.338983 0.030904
vt 2.338983 0.969096
vt -1.338983 0.969096
vt -1.338983 0.030904
vt 2.338983 0.030904
vt 2.338983 0.969096
vt -1.338983 0.969096
vt -1.338983 0.030904
vt 2.338983 0.030904
vt 2.338983 0.969096
vt -1.338983 0.969096
vt -1.338983 0.030904
vt -1.338983 0.969096
vt -1.338983 0.030904
vt 2.338983 0.030904
vt 2.338983 0.969096
vn 1.0000 0.0000 0.0000
vn 0.0000 0.0000 -1.0000
vn -1.0000 0.0000 0.0000
vn 0.0000 0.0000 1.0000
vn 0.0000 -1.0000 -0.0000
vn 0.0000 1.0000 0.0000
usemtl Materiais.001
s 1
f 1/1/1 2/2/1 3/3/1 4/4/1
f 2/5/2 5/6/2 6/7/2 3/8/2
f 5/9/3 7/10/3 8/11/3 6/12/3
f 7/13/4 1/14/4 4/15/4 8/16/4
f 2/5/5 1/14/5 7/17/5 5/18/5
f 6/19/6 8/20/6 4/15/6 3/8/6
o rua_Cubo.001
v 16.779560 0.849350 -34.417118
v 12.440254 0.849350 -34.417118
v 12.440254 1.150650 -34.417118
v 16.779560 1.150650 -34.417118
v 12.440256 0.849350 -2.726871
v 12.440256 1.150650 -2.726871
v 16.779562 0.849350 -2.726871
v 16.779562 1.150650 -2.726871
vt 2.338983 0.030904
vt 2.338983 0.969096
vt -1.338983 0.969096
vt -1.338983 0.030904
vt 2.338983 0.030904
vt 2.338983 0.969096
vt -1.338983 0.969096
vt -1.338983 0.030904
vt 2.338983 0.030904
vt 2.338983 0.969096
vt -1.338983 0.969096
vt -1.338983 0.030904
vt 2.338983 0.030904
vt 2.338983 0.969096
vt -1.338983 0.969096
vt -1.338983 0.030904
vt -1.338983 0.969096
vt -1.338983 0.030904
vt 2.338983 0.030904
vt 2.338983 0.969096
vn 0.0000 0.0000 -1.0000
vn -1.0000 0.0000 0.0000
vn -0.0000 0.0000 1.0000
vn 1.0000 0.0000 -0.0000
vn -0.0000 -1.0000 0.0000
vn 0.0000 1.0000 0.0000
usemtl Materiais.001
s 1
f 9/21/7 10/22/7 11/23/7 12/24/7
f 10/25/8 13/26/8 14/27/8 11/28/8
f 13/29/9 15/30/9 16/31/9 14/32/9
f 15/33/10 9/34/10 12/35/10 16/36/10
f 10/25/11 9/34/11 15/37/11 13/38/11
f 14/39/12 16/40/12 12/35/12 11/28/12
o rua_Cubo.002
v -10.482864 0.849350 -34.417118
v -14.822170 0.849350 -34.417118
v -14.822170 1.150650 -34.417118
v -10.482864 1.150650 -34.417118
v -14.822168 0.849350 -2.726871
v -14.822168 1.150650 -2.726871
v -10.482863 0.849350 -2.726871
v -10.482863 1.150650 -2.726871
vt 2.338983 0.030904
vt 2.338983 0.969096
vt -1.338983 0.969096
vt -1.338983 0.030904
vt 2.338983 0.030904
vt 2.338983 0.969096
vt -1.338983 0.969096
vt -1.338983 0.030904
vt 2.338983 0.030904
vt 2.338983 0.969096
vt -1.338983 0.969096
vt -1.338983 0.030904
vt 2.338983 0.030904
vt 2.338983 0.969096
vt -1.338983 0.969096
vt -1.338983 0.030904
vt -1.338983 0.969096
vt -1.338983 0.030904
vt 2.338983 0.030904
vt 2.338983 0.969096
vn 0.0000 0.0000 -1.0000
vn -1.0000 0.0000 0.0000
vn -0.0000 0.0000 1.0000
vn 1.0000 0.0000 -0.0000
vn -0.0000 -1.0000 0.0000
vn 0.0000 1.0000 -0.0000
usemtl Materiais.001
s 1
f 17/41/13 18/42/13 19/43/13 20/44/13
f 18/45/14 21/46/14 22/47/14 19/48/14
f 21/49/15 23/50/15 24/51/15 22/52/15
f 23/53/16 17/54/16 20/55/16 24/56/16
f 18/45/17 17/54/17 23/57/17 21/58/17
f 22/59/18 24/60/18 20/55/18 19/48/18
o rua_Cubo.003
v 16.744492 0.849350 -34.418221
v 16.744492 0.849350 -38.757526
v 16.744492 1.150650 -38.757526
v 16.744492 1.150650 -34.418221
v -14.945755 0.849350 -38.757526
v -14.945755 1.150650 -38.757526
v -14.945755 0.849350 -34.418221
v -14.945755 1.150650 -34.418221
vt 2.338983 0.030904
vt 2.338983 0.969096
vt -1.338983 0.969096
vt -1.338983 0.030904
vt 2.338983 0.030904
vt 2.338983 0.969096
vt -1.338983 0.969096
vt -1.338983 0.030904
vt 2.338983 0.030904
vt 2.338983 0.969096
vt -1.338983 0.969096
vt -1.338983 0.030904
vt 2.338983 0.030904
vt 2.338983 0.969096
vt -1.338983 0.969096
vt -1.338983 0.030904
vt -1.338983 0.969096
vt -1.338983 0.030904
vt 2.338983 0.030904
vt 2.338983 0.969096
vn 1.0000 0.0000 0.0000
vn 0.0000 0.0000 -1.0000
vn -1.0000 0.0000 0.0000
vn 0.0000 0.0000 1.0000
vn 0.0000 -1.0000 -0.0000
vn 0.0000 1.0000 0.0000
usemtl Materiais.001
s 1
f 25/61/19 26/62/19 27/63/19 28/64/19
f 26/65/20 29/66/20 30/67/20 27/68/20
f 29/69/21 31/70/21 32/71/21 30/72/21
f 31/73/22 25/74/22 28/75/22 32/76/22
f 26/65/23 25/74/23 31/77/23 29/78/23
f 30/79/24 32/80/24 28/75/24 27/68/24
